<svg width="190" height="197" viewBox="0 0 190 197" fill="none" xmlns="http://www.w3.org/2000/svg">
<path d="M75.1389 186.679C73.4304 186.751 70.7077 186.028 69.0237 185.562C44.8579 178.724 24.3692 162.622 12.0135 140.757C-0.157041 118.9 -3.22554 93.1283 3.47246 69.0248C10.307 44.8663 26.341 24.3503 48.1322 11.8808C70.4155 -0.332928 96.6167 -3.26693 121.049 3.71607C145.182 10.6866 165.507 27.0528 177.464 49.1438C189.454 71.1423 192.242 96.9933 185.222 121.043C178.314 144.797 162.339 164.881 140.749 176.958C136.274 179.421 117.367 188.159 113.327 186.414C107.072 190.496 100.507 194.944 92.934 195.991C85.457 197.029 80.1357 191.304 75.1389 186.679Z" fill="url(#paint0_linear_14_25)"/>
<path d="M75.1389 186.679C73.4304 186.751 70.7077 186.028 69.0237 185.562C44.8579 178.724 24.3692 162.622 12.0135 140.757C-0.157041 118.9 -3.22554 93.1283 3.47246 69.0248C10.307 44.8663 26.341 24.3503 48.1322 11.8808C70.4155 -0.332928 96.6167 -3.26693 121.049 3.71607C145.182 10.6866 165.507 27.0528 177.464 49.1438C189.454 71.1423 192.242 96.9933 185.222 121.043C178.314 144.797 162.339 164.881 140.749 176.958C136.274 179.421 117.367 188.159 113.327 186.414C114.287 185.501 116.624 183.807 117.752 182.903C120.569 180.645 123.394 178.271 126.307 176.158C127.099 175.101 128.184 174.077 129.147 173.164C144.504 158.582 156.619 140.448 161.162 119.463C160.509 117.685 161.912 114.048 162.094 112.084C162.872 103.646 163.049 95.6241 161.819 87.2308L161.427 87.0386C161.112 87.4678 160.849 87.8588 160.557 88.3011L159.874 88.3478C159.874 88.3056 159.877 88.2633 159.877 88.2211C159.339 85.5601 160.927 81.2453 160.199 78.7893C158.689 73.6828 156.824 68.6001 154.422 63.8438C153.897 62.8056 153.114 61.7841 153.169 60.6231C152.139 58.3456 150.582 56.0601 149.164 53.9883C132.957 30.3258 102.849 15.8186 74.1192 21.5078C62.8865 23.6261 52.5169 28.9793 44.2847 36.9098C42.6094 38.5168 40.248 40.9723 38.9415 42.9101C33.9987 48.4666 29.7055 58.1903 27.978 65.3471C19.9245 98.7156 34.9002 132.933 53.6819 159.797C56.2584 163.446 58.9317 167.027 61.6987 170.534C63.3234 172.607 66.0705 175.83 67.304 178.02C69.2625 179.895 73.4597 184.468 75.1389 186.679Z" fill="#80BCEE"/>
<path d="M75.1389 186.679C73.4304 186.751 70.7077 186.028 69.0237 185.562C44.8579 178.724 24.3692 162.622 12.0135 140.757C-0.157041 118.9 -3.22554 93.1283 3.47246 69.0248C10.307 44.8663 26.341 24.3503 48.1322 11.8808C70.4155 -0.332928 96.6167 -3.26693 121.049 3.71607C145.182 10.6866 165.507 27.0528 177.464 49.1438C189.454 71.1423 192.242 96.9933 185.222 121.043C178.314 144.797 162.339 164.881 140.749 176.958C136.274 179.421 117.367 188.159 113.327 186.414C114.287 185.501 116.624 183.807 117.752 182.903C120.569 180.645 123.394 178.271 126.307 176.158C130.139 175.394 135.314 172.781 138.669 170.787C150.407 163.93 160.434 154.498 167.997 143.202C180.774 123.692 185.419 99.9603 180.942 77.0726C176.352 54.5741 162.614 33.6198 143.362 21.0223C123.459 8.02058 99.1942 3.49858 75.9467 8.46008C53.06 13.1816 33.0564 26.9613 20.4892 46.6633C7.8077 66.4496 3.48895 90.4566 8.47945 113.422C13.4899 136.302 27.4149 156.241 47.1707 168.824C53.9535 173.159 59.6297 175.676 67.304 178.02C69.2625 179.895 73.4597 184.468 75.1389 186.679Z" fill="#CAEBFD"/>
<path d="M153.169 60.623C154.637 62.7003 156.524 66.942 157.504 69.3823C163.164 83.8603 164.737 99.6165 162.047 114.928C161.819 116.266 161.499 118.187 161.162 119.463C160.509 117.685 161.912 114.048 162.094 112.084C162.872 103.646 163.049 95.6241 161.819 87.2308L161.427 87.0385C161.112 87.4678 160.849 87.8588 160.557 88.3011L159.874 88.3478C159.874 88.3055 159.877 88.2633 159.877 88.2211C159.339 85.5601 160.927 81.2453 160.199 78.7893C158.689 73.6828 156.824 68.6001 154.422 63.8438C153.897 62.8056 153.114 61.784 153.169 60.623Z" fill="#FDACA3"/>
<path d="M38.9415 42.9101C40.248 40.9723 42.6095 38.5168 44.2847 36.9098C52.517 28.9793 62.8865 23.6261 74.1192 21.5078C102.849 15.8186 132.957 30.3258 149.164 53.9883C150.582 56.0601 152.139 58.3456 153.169 60.6231C153.114 61.7841 153.897 62.8056 154.422 63.8438C156.824 68.6001 158.689 73.6828 160.199 78.7893C160.927 81.2453 159.339 85.5601 159.877 88.2211C159.877 88.2633 159.874 88.3056 159.874 88.3478C159.517 87.8998 159.732 88.0623 159.239 87.8408L159.112 87.6496L158.822 87.9963C153.954 88.6623 157.309 97.9613 150.134 99.1433C143.237 100.28 133.209 95.3101 127.914 101.019C126.534 102.766 127.289 105.817 126.979 107.907C126.587 110.56 122.814 114.92 120.179 115.732C119.217 116.028 118.037 115.618 116.982 116.175C116.322 118.443 116.824 123.858 116.514 126.772C116.264 125.948 116.287 124.997 116.257 124.122C116.247 121.534 116.109 116.292 116.627 114.025C115.729 112.48 112.084 108.557 110.692 106.987L98.7542 93.5613L89.4502 83.0028C87.3162 80.5656 84.075 76.5143 81.6187 74.7568C78.563 76.2618 54.7535 97.1698 51.9077 100.12C46.5055 103.945 46.6715 105.286 42.4377 98.5101C43.3722 97.2561 44.8233 95.7478 45.9068 94.5653C46.0773 93.0113 47.922 92.3731 48.7015 90.9168C49.0115 90.3378 49.1142 89.6151 48.814 89.0208C45.5192 82.4991 38.0885 83.9971 33.858 79.0791C32.3973 77.3808 30.8635 72.3208 28.9408 71.5768C28.099 71.2511 27.6672 71.5853 27.073 71.9128L27.1033 72.0138C27.9138 64.5151 31.1337 56.3673 34.687 49.8211C35.6652 48.0183 38.5752 44.6083 38.9415 42.9101Z" fill="url(#paint1_linear_14_25)"/>
<path d="M45.9068 94.5653C47.8115 93.1768 52.6492 88.6988 54.648 86.9466L73.2295 70.5681C76.2007 67.9311 79.1363 65.1568 82.3255 62.7973C83.556 61.8868 85.8962 61.4128 87.1687 62.4268C93.114 67.1641 97.2717 74.1451 102.797 79.3411L103.099 79.6203L103.337 79.4666C105.649 79.6878 112.142 80.4703 114.077 80.2331C114.072 85.1256 112.794 98.5816 114.672 102.425C116.022 105.188 118.639 107.631 120.784 109.777C121.682 110.675 122.609 111.706 123.692 112.382C121.124 114.948 119.819 116.833 116.627 114.025C115.729 112.48 112.084 108.557 110.692 106.987L98.7542 93.5613L89.4502 83.0028C87.3162 80.5656 84.075 76.5143 81.6187 74.7568C78.563 76.2618 54.7535 97.1698 51.9077 100.12C46.5055 103.945 46.6715 105.286 42.4377 98.5101C43.3722 97.2561 44.8233 95.7478 45.9068 94.5653Z" fill="#BA18CF"/>
<path d="M45.9068 94.5653C47.8115 93.1768 52.6492 88.6988 54.648 86.9466L73.2295 70.5681C76.2007 67.9311 79.1363 65.1568 82.3255 62.7973C83.556 61.8868 85.8962 61.4128 87.1687 62.4268C93.114 67.1641 97.2717 74.1451 102.797 79.3411L103.099 79.6203C104.114 80.5693 103.849 82.1246 103.899 83.4998C103.954 84.9401 104.039 87.7093 102.909 88.7236C99.6093 88.4113 86.4227 67.6486 81.1545 67.5998C79.5117 67.4946 77.7728 68.7626 76.5408 69.8201C68.8355 76.4336 61.3088 83.3048 53.6463 89.9643C51.3125 91.9926 45.261 98.1608 42.4377 98.5101C43.3722 97.2561 44.8233 95.7478 45.9068 94.5653Z" fill="#DA34E0"/>
<path d="M108.259 73.432C110.369 73.846 115.612 74.275 116.917 75.1458C118.174 77.164 117.399 92.1888 117.419 95.7478C119.007 98.1668 127.022 105.709 126.529 107.936C126.177 109.529 124.684 111.121 123.692 112.382C122.609 111.706 121.682 110.675 120.784 109.777C118.639 107.631 116.022 105.187 114.672 102.425C112.794 98.5815 114.072 85.1255 114.077 80.233C112.142 80.4703 105.649 79.6878 103.337 79.4665C103.974 77.5553 106.687 74.6798 108.259 73.432Z" fill="#DA34E0"/>
<path d="M51.9077 100.12C54.7535 97.1698 78.563 76.2618 81.6187 74.7568C84.075 76.5143 87.3162 80.5656 89.4502 83.0028L98.7542 93.5613L110.692 106.987C112.084 108.557 115.729 112.48 116.627 114.025C116.109 116.292 116.247 121.534 116.257 124.122C115.534 129.794 116.569 137.395 111.862 141.499C108.864 144.113 104.239 142.298 100.772 141.724C98.1317 141.288 95.5792 140.617 92.8852 140.323L92.5312 140.286C92.4652 136.963 92.8662 121.716 92.1507 119.724C90.7137 114.033 85.5827 109.605 79.4787 109.511C78.625 109.498 76.5147 110.175 75.9532 110.824C75.5715 112.6 75.8257 128.229 75.9797 130.626C74.314 132.634 73.4447 134.008 71.5592 136.001C67.4697 135.292 58.2975 134.173 54.9177 132.017C52.7215 130.617 52.7495 122.846 52.6025 119.836C52.3047 113.267 52.073 106.694 51.9077 100.12Z" fill="white"/>
<path d="M75.9531 110.824C76.5146 110.175 78.6249 109.498 79.4786 109.511C85.5826 109.605 90.7136 114.033 92.1506 119.724L91.9514 120.095C91.3039 119.121 91.3691 117.612 90.7474 116.817C84.0589 108.268 85.0291 112.297 77.0704 115.129C76.2089 115.436 76.3626 127.211 76.2274 128.588C75.8486 123.643 75.9946 115.932 75.9531 110.824Z" fill="#C5668F"/>
<defs>
<linearGradient id="paint0_linear_14_25" x1="96.8067" y1="76.8033" x2="78.575" y2="193.799" gradientUnits="userSpaceOnUse">
<stop stop-color="#EF9190"/>
<stop offset="1" stop-color="#CB79EF"/>
</linearGradient>
<linearGradient id="paint1_linear_14_25" x1="100.804" y1="21.8843" x2="93.5268" y2="142.389" gradientUnits="userSpaceOnUse">
<stop offset="0.0192308" stop-color="#FCBD60"/>
<stop offset="1" stop-color="#E37993"/>
</linearGradient>
</defs>
</svg>
