<svg width="500" height="500" viewBox="0 0 500 500" fill="none" xmlns="http://www.w3.org/2000/svg">
<g clip-path="url(#clip0_10_3)">
<path d="M0 0H500V500H0V0Z" fill="white"/>
<path d="M230.612 250.29C228.904 250.363 226.181 249.639 224.497 249.174C200.331 242.336 179.843 226.234 167.487 204.369C155.316 182.512 152.248 156.74 158.946 132.636C165.78 108.478 181.814 87.9618 203.605 75.4923C225.889 63.2785 252.09 60.3445 276.522 67.3275C300.655 74.298 320.98 90.6643 332.938 112.755C344.927 134.754 347.715 160.605 340.695 184.654C333.788 208.408 317.813 228.492 296.223 240.569C291.748 243.033 272.84 251.77 268.8 250.025C262.545 254.108 255.98 258.555 248.407 259.603C240.93 260.64 235.609 254.915 230.612 250.29Z" fill="url(#paint0_linear_10_3)"/>
<path d="M230.612 250.29C228.904 250.363 226.181 249.639 224.497 249.174C200.331 242.336 179.843 226.234 167.487 204.369C155.316 182.512 152.248 156.74 158.946 132.636C165.78 108.478 181.814 87.9618 203.605 75.4923C225.889 63.2785 252.09 60.3445 276.522 67.3275C300.655 74.298 320.98 90.6643 332.938 112.755C344.927 134.754 347.715 160.605 340.695 184.654C333.788 208.408 317.813 228.492 296.223 240.569C291.748 243.033 272.84 251.77 268.8 250.025C269.76 249.112 272.098 247.418 273.225 246.514C276.043 244.256 278.867 241.883 281.78 239.77C282.572 238.713 283.657 237.689 284.62 236.775C299.977 222.194 312.093 204.06 316.635 183.074C315.983 181.296 317.385 177.66 317.568 175.696C318.345 167.258 318.523 159.236 317.293 150.842L316.9 150.65C316.585 151.079 316.322 151.47 316.03 151.913L315.348 151.959C315.348 151.917 315.35 151.875 315.35 151.833C314.813 149.172 316.4 144.857 315.672 142.401C314.162 137.294 312.297 132.212 309.895 127.455C309.37 126.417 308.587 125.396 308.642 124.235C307.612 121.957 306.055 119.672 304.638 117.6C288.43 93.9373 258.322 79.43 229.592 85.1193C218.36 87.2375 207.99 92.5908 199.758 100.521C198.083 102.128 195.721 104.584 194.415 106.522C189.472 112.078 185.179 121.802 183.451 128.959C175.398 162.327 190.373 196.545 209.155 223.408C211.732 227.058 214.405 230.638 217.172 234.146C218.797 236.218 221.544 239.442 222.777 241.631C224.736 243.507 228.933 248.08 230.612 250.29Z" fill="#80BCEE"/>
<path d="M230.612 250.29C228.904 250.363 226.181 249.639 224.497 249.174C200.331 242.336 179.843 226.234 167.487 204.369C155.316 182.512 152.248 156.74 158.946 132.636C165.78 108.478 181.814 87.9618 203.605 75.4923C225.889 63.2785 252.09 60.3445 276.522 67.3275C300.655 74.298 320.98 90.6643 332.938 112.755C344.927 134.754 347.715 160.605 340.695 184.654C333.788 208.408 317.813 228.492 296.223 240.569C291.748 243.033 272.84 251.77 268.8 250.025C269.76 249.112 272.098 247.418 273.225 246.514C276.043 244.256 278.867 241.883 281.78 239.77C285.612 239.005 290.787 236.393 294.142 234.398C305.88 227.541 315.908 218.11 323.47 206.814C336.248 187.303 340.893 163.572 336.415 140.684C331.825 118.186 318.087 97.2313 298.835 84.6338C278.932 71.632 254.667 67.11 231.42 72.0715C208.533 76.793 188.53 90.5728 175.962 110.275C163.281 130.061 158.962 154.068 163.953 177.033C168.963 199.914 182.888 219.853 202.644 232.436C209.427 236.77 215.103 239.288 222.777 241.631C224.736 243.507 228.933 248.08 230.612 250.29Z" fill="#CAEBFD"/>
<path d="M308.642 124.234C310.11 126.312 311.998 130.553 312.978 132.994C318.638 147.472 320.21 163.228 317.52 178.539C317.292 179.877 316.973 181.798 316.635 183.074C315.983 181.296 317.385 177.659 317.568 175.695C318.345 167.258 318.523 159.236 317.293 150.842L316.9 150.65C316.585 151.079 316.323 151.47 316.03 151.913L315.348 151.959C315.348 151.917 315.35 151.875 315.35 151.833C314.813 149.172 316.4 144.857 315.672 142.401C314.162 137.294 312.297 132.212 309.895 127.455C309.37 126.417 308.587 125.395 308.642 124.234Z" fill="#FDACA3"/>
<path d="M194.415 106.522C195.721 104.584 198.083 102.128 199.758 100.521C207.99 92.5908 218.36 87.2375 229.592 85.1193C258.322 79.43 288.43 93.9373 304.638 117.6C306.055 119.672 307.612 121.957 308.642 124.235C308.587 125.396 309.37 126.417 309.895 127.455C312.297 132.212 314.162 137.294 315.672 142.401C316.4 144.857 314.813 149.172 315.35 151.833C315.35 151.875 315.348 151.917 315.348 151.959C314.99 151.511 315.205 151.674 314.712 151.452L314.585 151.261L314.295 151.608C309.428 152.274 312.783 161.573 305.608 162.755C298.71 163.891 288.683 158.922 283.388 164.631C282.008 166.377 282.763 169.428 282.453 171.519C282.06 174.171 278.287 178.531 275.652 179.343C274.69 179.64 273.51 179.23 272.455 179.787C271.795 182.054 272.297 187.469 271.987 190.384C271.737 189.56 271.76 188.609 271.73 187.734C271.72 185.146 271.583 179.903 272.1 177.636C271.203 176.092 267.558 172.169 266.165 170.599L254.227 157.173L244.923 146.614C242.789 144.177 239.548 140.126 237.092 138.368C234.036 139.873 210.227 160.781 207.381 163.732C201.979 167.557 202.145 168.897 197.911 162.122C198.845 160.868 200.297 159.359 201.38 158.177C201.551 156.623 203.395 155.985 204.175 154.528C204.485 153.949 204.587 153.227 204.287 152.632C200.992 146.111 193.562 147.609 189.331 142.691C187.871 140.992 186.337 135.932 184.414 135.188C183.572 134.863 183.14 135.197 182.546 135.524L182.577 135.625C183.387 128.127 186.607 119.979 190.16 113.433C191.138 111.63 194.048 108.22 194.415 106.522Z" fill="url(#paint1_linear_10_3)"/>
<path d="M201.38 158.177C203.285 156.788 208.122 152.31 210.121 150.558L228.703 134.18C231.674 131.543 234.61 128.768 237.799 126.409C239.029 125.498 241.369 125.024 242.642 126.038C248.587 130.776 252.745 137.757 258.27 142.953L258.573 143.232L258.81 143.078C261.122 143.299 267.615 144.082 269.55 143.845C269.545 148.737 268.267 162.193 270.145 166.037C271.495 168.799 274.113 171.242 276.258 173.388C277.155 174.287 278.083 175.318 279.165 175.994C276.598 178.56 275.293 180.445 272.1 177.636C271.203 176.092 267.558 172.169 266.165 170.599L254.227 157.173L244.923 146.614C242.789 144.177 239.548 140.126 237.092 138.368C234.036 139.873 210.227 160.781 207.381 163.732C201.979 167.557 202.145 168.897 197.911 162.122C198.845 160.868 200.297 159.359 201.38 158.177Z" fill="#BA18CF"/>
<path d="M201.38 158.177C203.285 156.788 208.122 152.31 210.121 150.558L228.703 134.18C231.674 131.543 234.61 128.768 237.799 126.409C239.029 125.498 241.369 125.024 242.642 126.038C248.587 130.776 252.745 137.757 258.27 142.953L258.573 143.232C259.588 144.181 259.322 145.736 259.372 147.111C259.427 148.552 259.513 151.321 258.383 152.335C255.083 152.023 241.896 131.26 236.628 131.211C234.985 131.106 233.246 132.374 232.014 133.432C224.309 140.045 216.782 146.916 209.12 153.576C206.786 155.604 200.734 161.772 197.911 162.122C198.845 160.868 200.297 159.359 201.38 158.177Z" fill="#DA34E0"/>
<path d="M263.733 137.043C265.843 137.457 271.085 137.886 272.39 138.757C273.648 140.775 272.872 155.8 272.892 159.359C274.48 161.778 282.495 169.321 282.003 171.547C281.65 173.14 280.158 174.733 279.165 175.993C278.083 175.318 277.155 174.287 276.258 173.388C274.113 171.242 271.495 168.799 270.145 166.037C268.267 162.193 269.545 148.737 269.55 143.844C267.615 144.082 261.122 143.299 258.81 143.078C259.447 141.167 262.16 138.291 263.733 137.043Z" fill="#DA34E0"/>
<path d="M207.381 163.732C210.227 160.781 234.036 139.873 237.092 138.368C239.548 140.126 242.789 144.177 244.923 146.614L254.227 157.173L266.165 170.599C267.557 172.169 271.202 176.092 272.1 177.636C271.582 179.903 271.72 185.146 271.73 187.734C271.007 193.405 272.042 201.007 267.335 205.111C264.337 207.724 259.712 205.91 256.245 205.336C253.605 204.9 251.052 204.229 248.358 203.934L248.004 203.897C247.938 200.574 248.339 185.328 247.624 183.336C246.187 177.644 241.056 173.217 234.952 173.123C234.098 173.11 231.988 173.786 231.426 174.436C231.045 176.211 231.299 191.841 231.453 194.238C229.787 196.245 228.918 197.62 227.032 199.612C222.943 198.904 213.771 197.784 210.391 195.629C208.195 194.228 208.223 186.457 208.076 183.448C207.778 176.878 207.546 170.306 207.381 163.732Z" fill="white"/>
<path d="M231.427 174.436C231.988 173.786 234.098 173.11 234.952 173.123C241.056 173.216 246.187 177.644 247.624 183.336L247.425 183.706C246.777 182.733 246.843 181.223 246.221 180.428C239.532 171.879 240.503 175.908 232.544 178.741C231.682 179.047 231.836 190.822 231.701 192.199C231.322 187.254 231.468 179.543 231.427 174.436Z" fill="#C5668F"/>
<path d="M272.042 317.307L276.63 317.45C276.765 322.798 276.862 332.632 276.55 337.835C279.042 335.197 281.375 332.917 284.985 331.955C302.99 327.16 313.938 348.268 301.983 361.483C301.593 361.85 301.187 362.203 300.77 362.54C294.577 367.618 284.692 367.803 278.79 362.158C277.845 361.255 277.085 360.32 276.265 359.302C276.525 361.525 276.482 363.73 276.487 365.967L272 366.04C271.932 350.023 271.782 333.287 272.042 317.307Z" fill="#80BCEE"/>
<path d="M286.867 335.827C294.05 334.42 301.01 339.12 302.388 346.31C303.765 353.5 299.035 360.44 291.837 361.785C284.687 363.125 277.797 358.427 276.43 351.282C275.06 344.135 279.727 337.227 286.867 335.827Z" fill="white"/>
<path d="M245.383 331.235C255.11 330.45 263.627 337.712 264.387 347.442C265.147 357.172 257.865 365.67 248.133 366.407C238.435 367.142 229.972 359.89 229.214 350.192C228.456 340.495 235.689 332.015 245.383 331.235Z" fill="#80BCEE"/>
<path d="M244.3 335.833C251.505 334.438 258.465 339.185 259.795 346.403C261.128 353.618 256.318 360.535 249.09 361.803C241.952 363.053 235.14 358.318 233.825 351.193C232.511 344.065 237.185 337.21 244.3 335.833Z" fill="white"/>
<path d="M180.653 331.345C187.129 331.01 190.841 333.07 194.21 338.467C200.507 328.037 218.764 328.965 221.006 341.015C222.202 347.445 221.628 359.082 221.602 365.987C220.081 366.025 218.513 366.022 216.987 366.04C216.854 359.287 217.075 352.707 216.862 345.675C216.544 335.187 206.016 332.48 198.755 338.745C195.056 341.937 195.51 349.422 195.525 354.125L195.527 365.985L190.925 366.03C190.739 362.325 190.955 358.587 190.882 354.9C190.805 350.985 191.197 346.785 190.43 342.942C189.397 337.765 185.416 335.34 180.477 335.517C172.538 335.802 169.243 341.79 169.42 348.975C169.45 354.632 169.427 360.327 169.43 365.975L164.732 366.03L164.744 331.495L169.186 331.52C169.241 333.942 169.244 335.345 169.006 337.742C172.601 333.467 175.009 331.897 180.653 331.345Z" fill="#80BCEE"/>
<path d="M355.215 331.38C356.627 331.535 358.233 331.515 359.668 331.538C355.858 340.26 351.987 348.955 348.06 357.625C346.145 362.418 343.813 367.245 341.628 371.922C337.998 379.697 328.827 381.388 322.517 375.785C323.45 374.648 323.885 373.76 324.578 372.483C333.028 378.73 336.51 373.163 339.77 365.88C335.845 358.36 332.735 349.767 329 342.092C327.433 338.87 325.65 334.86 324.445 331.53L329.135 331.49C333.518 341.245 337.728 351.19 342.258 360.862C343.388 357.677 345.478 353.278 346.883 350.1L355.215 331.38Z" fill="#80BCEE"/>
<path d="M314.772 317.35L319.4 317.427C319.69 333.355 319.443 349.995 319.44 365.975L314.728 366.03C314.693 349.982 314.51 333.357 314.772 317.35Z" fill="#80BCEE"/>
<path d="M147.462 320.167L152.297 320.177C152.624 335.117 152.354 350.992 152.337 365.98C150.729 366.012 149.087 366.007 147.475 366.022L147.462 320.167Z" fill="#80BCEE"/>
<path d="M303.12 412.113C305.86 411.85 308.297 413.85 308.575 416.59C308.855 419.328 306.867 421.778 304.132 422.073C301.372 422.37 298.897 420.363 298.615 417.603C298.335 414.84 300.355 412.378 303.12 412.113Z" fill="#095BBD"/>
<path d="M303.037 413.412C305.082 413.092 306.997 414.502 307.297 416.55C307.6 418.6 306.172 420.5 304.122 420.785C302.095 421.065 300.222 419.66 299.922 417.637C299.625 415.612 301.015 413.727 303.037 413.412Z" fill="white"/>
<path d="M205.972 412.365C207.701 411.77 209.617 412.165 210.969 413.398C212.322 414.628 212.895 416.498 212.464 418.275C212.034 420.053 210.669 421.453 208.903 421.93C206.298 422.633 203.605 421.143 202.814 418.563C202.024 415.983 203.421 413.243 205.972 412.365Z" fill="#095BBD"/>
<path d="M207.154 413.39C208.497 413.225 209.825 413.8 210.623 414.895C211.421 415.987 211.564 417.427 210.995 418.657C210.427 419.885 209.238 420.71 207.888 420.812C205.868 420.962 204.098 419.475 203.898 417.46C203.699 415.445 205.144 413.637 207.154 413.39Z" fill="white"/>
<path d="M348.84 412.113C351.538 411.973 353.858 414.005 354.073 416.698C354.288 419.393 352.318 421.765 349.63 422.053C347.825 422.245 346.06 421.443 345.02 419.958C343.978 418.473 343.823 416.54 344.618 414.91C345.413 413.28 347.03 412.208 348.84 412.113Z" fill="#095BBD"/>
<path d="M348.448 413.405C349.778 413.173 351.132 413.678 351.99 414.723C352.845 415.768 353.072 417.195 352.582 418.455C352.092 419.715 350.96 420.613 349.62 420.805C347.595 421.095 345.713 419.705 345.39 417.683C345.07 415.663 346.43 413.758 348.448 413.405Z" fill="white"/>
<path d="M271.877 412.115C274.617 411.99 276.942 414.105 277.08 416.843C277.217 419.583 275.115 421.918 272.377 422.07C269.62 422.223 267.262 420.103 267.125 417.345C266.985 414.585 269.117 412.24 271.877 412.115Z" fill="#095BBD"/>
<path d="M271.515 413.285C276.458 413.308 277.483 418.973 272.718 420.94C270.72 420.895 269.212 420.303 268.58 418.218C268.267 417.185 268.395 416.073 268.933 415.138C269.58 414.013 270.335 413.638 271.515 413.285Z" fill="white"/>
<path d="M366.978 412.262C371.335 411.702 372.552 413.657 373.297 417.502L364.578 417.72C366.085 420.277 366.705 420.845 369.693 420.82C370.528 420.452 371.172 420.02 372.022 420.19L372.215 420.517C370.703 423.005 365.783 422.36 364.245 419.585C363.53 418.287 363.408 416.745 363.903 415.35C364.47 413.712 365.498 412.982 366.978 412.262Z" fill="#095BBD"/>
<path d="M367.733 413.28C369.318 413.323 371.76 414.145 371.635 416.035C370.9 416.568 370.947 416.375 369.812 416.37C368.102 416.325 366.302 416.34 364.582 416.325C365.692 414.583 365.895 414.135 367.733 413.28Z" fill="white"/>
<path d="M230.759 412.255C235.113 411.71 236.358 413.663 237.058 417.508C234.987 417.568 230.347 417.17 229.095 418.405C229.46 420.765 231.897 420.863 233.787 420.728C234.842 420.253 234.882 420.018 235.824 420.158L235.872 420.593C234.232 422.538 231.529 422.07 229.457 421.325C226.379 418.163 226.484 414.155 230.759 412.255Z" fill="#1667C2"/>
<path d="M231.444 413.31C232.994 413.338 235.637 414.058 235.337 416.03C234.504 416.515 234.681 416.353 233.563 416.345C232.073 416.36 229.83 416.695 228.929 415.373L229.143 414.803C230.113 413.968 230.281 413.833 231.444 413.31Z" fill="white"/>
<path d="M144.977 412.26C149.291 411.695 150.609 413.638 151.259 417.508C148.471 417.505 145.385 417.648 142.577 417.718C144.102 420.3 144.717 420.833 147.727 420.825C148.54 420.443 149.538 419.71 150.221 420.448C149.485 422.013 146.531 422.285 145.038 421.848C143.776 421.483 142.729 420.598 142.159 419.413C141.541 418.148 141.451 416.688 141.908 415.355C142.466 413.705 143.488 412.978 144.977 412.26Z" fill="#095BBD"/>
<path d="M145.734 413.287C147.358 413.315 149.704 414.142 149.641 416.04C148.946 416.565 148.928 416.367 147.812 416.355L142.59 416.325C143.694 414.58 143.894 414.132 145.734 413.287Z" fill="white"/>
<path d="M191.025 413.54C191.86 412.553 192.646 412.335 193.901 412.153C197.703 411.6 198.668 415.815 198.605 418.748C198.578 420.03 198.671 420.955 197.746 421.86L197.35 421.753C196.405 419.485 198.238 410.525 191.986 414.023C189.653 417.115 192.158 420.66 190.147 422.12L189.799 421.973C188.973 419.675 190.418 415.11 187.787 413.28C186.242 412.878 184.903 413.745 183.82 414.778L183.372 413.665C185.724 411.573 188.161 411.893 190.496 413.875L191.025 413.54Z" fill="#095BBD"/>
<path d="M253.815 413.84C253.813 412.75 253.625 412.755 254.14 412.06L254.538 412.083C254.783 412.51 255.025 412.92 255.335 413.303C263.178 410.055 263.093 415.01 262.97 421.29C262.515 422.03 262.828 421.803 262.035 422.043C260.24 420.878 263.923 411.838 257.438 413.533C256.063 413.89 255.53 415.015 255.19 416.25C255.368 417.385 255.25 419.783 255.278 421.023C255.29 421.558 254.835 421.805 254.473 422.073L254.068 421.94C253.45 420.665 253.77 415.513 253.815 413.84Z" fill="#095BBD"/>
<path d="M253.815 413.84C254.105 414.85 254.14 415.302 254.153 416.352L254.338 415.195L254.765 415C255.063 415.64 254.965 415.297 254.828 416.117L255.19 416.25C255.368 417.385 255.25 419.782 255.278 421.022C255.29 421.557 254.835 421.805 254.473 422.072L254.068 421.94C253.45 420.665 253.77 415.512 253.815 413.84Z" fill="#1667C2"/>
<path d="M132.914 412.332C134.264 412.14 137.63 411.883 138.03 413.515C137.314 414.053 135.238 413.06 133.247 413.513C132.636 413.975 132.349 414.09 132.15 414.823C133.236 417.163 139.715 416.467 138.387 420.272C138.049 421.24 136.52 421.67 135.6 421.975C134.156 422.073 131.61 422.048 130.674 420.813L130.818 420.348C132.31 420.01 136.281 421.995 137.399 419.612C136.355 417.545 132.838 418.065 130.859 415.593C130.421 413.805 131.46 413.155 132.914 412.332Z" fill="#095BBD"/>
<path d="M291.065 412.073C292.565 412.133 294.627 412.458 295.3 414.008C294.607 414.238 291.75 413.39 290.888 413.545C286.328 414.373 286.865 421.955 293.295 420.562C293.863 420.145 294.135 419.853 294.832 419.783L295.128 420.105C294.365 422.898 288.253 422.895 286.89 418.867C286.413 417.44 286.568 415.88 287.315 414.575C288.228 412.97 289.393 412.535 291.065 412.073Z" fill="#095BBD"/>
<path d="M215.065 411.88L215.762 412.098C216.968 413.283 219.055 418.767 219.793 420.555C220.479 418.977 223.025 412.34 224.296 412.033L224.601 412.4L224.438 413.057C223.694 414.787 221.217 421.235 220.002 422.05C218.309 421.402 215.188 413.67 215.065 411.88Z" fill="#095BBD"/>
<path d="M327.45 409.785C328.653 410.145 328.382 410.65 328.427 411.765C329.355 412.64 330.277 411.725 331.467 412.56L331.448 412.963C330.623 413.43 329.447 413.34 328.457 413.37C328.495 415.12 327.835 419.18 328.932 420.313C329.735 421.135 330.985 420.683 332.068 420.695L331.7 421.48C330.743 422.128 330.005 422.14 328.938 421.985C325.882 421.538 327.89 415.393 326.598 413.505C326.403 413.22 325.94 413.245 325.457 413.155L325.328 412.748C327.115 411.473 326.898 411.713 327.45 409.785Z" fill="#095BBD"/>
<path d="M241.18 407.833L242.108 408.06C242.89 408.935 242.495 420.29 242.415 422.183C242.02 422.098 241.714 421.998 241.329 421.88C240.632 420.873 241.02 409.63 241.18 407.833Z" fill="#1667C2"/>
<path d="M358.172 407.835L359.108 408.065C359.888 408.93 359.503 420.277 359.418 422.18C359.023 422.097 358.713 421.995 358.325 421.88C357.653 420.907 358.01 409.657 358.172 407.835Z" fill="#1667C2"/>
<path d="M314.245 413.555C321.122 408.545 322.235 415.952 321.983 421.165C321.485 421.98 321.82 421.747 321.09 422.067C319.707 421.02 321.412 414.937 319.022 413.44C317.542 412.515 315.48 413.99 314.51 414.81L314.245 413.555Z" fill="#095BBD"/>
<path d="M162.165 419.828C163.027 417.355 162.256 412.89 163.554 411.998L163.977 412.098C164.461 413.085 164.451 420.945 163.937 422.018C162.739 421.678 163.282 421.545 162.318 420.828C162.405 420.285 162.402 420.325 162.165 419.828Z" fill="#1667C2"/>
<path d="M314.51 414.81C314.29 416.318 314.355 421.15 314.068 421.748C313.368 422.073 313.713 422.058 313 421.833C312.53 420.84 312.718 413.673 312.963 412.243L313.353 412.035C314.063 412.63 313.87 412.555 314.245 413.555L314.51 414.81Z" fill="#1667C2"/>
<path d="M175.617 411.82C176.231 411.938 176.238 411.89 176.706 412.283C177.35 414.048 177.015 420.08 176.88 422.183C176.287 422.093 176.28 422.133 175.787 421.815C175.152 420.128 175.491 413.87 175.617 411.82Z" fill="#1667C2"/>
<path d="M183.82 414.778C183.146 417.27 183.948 420.743 183.072 421.988L182.631 422.035L182.187 421.633C181.914 420.208 181.549 412.8 182.717 412.165C183.42 412.818 183.205 412.523 183.372 413.665L183.82 414.778Z" fill="#1667C2"/>
<path d="M337.537 415.108C337.65 416.04 337.59 421.138 337.105 421.913L336.61 422.005L336.22 421.705C335.932 420.228 335.527 412.858 336.717 412.195C337.375 412.683 337.167 412.515 337.412 413.528C337.277 414.368 337.25 414.315 337.537 415.108Z" fill="#1667C2"/>
<path d="M155.625 420.118C155.238 418.488 154.474 413.21 156.07 412.238C157.041 413.123 156.593 416.658 156.537 418.038C156.241 418.723 156.02 419.528 155.625 420.118Z" fill="#1667C2"/>
<path d="M155.625 420.117C156.02 419.527 156.241 418.722 156.537 418.037C157.304 421.372 159.638 421.507 162.165 419.827C162.402 420.325 162.405 420.285 162.318 420.827C160.485 422.955 157.209 422.302 155.625 420.117Z" fill="#095BBD"/>
<path d="M337.413 413.528C338.74 412.638 339.338 412.345 340.935 412.238L341.082 412.333C340.835 413.46 338.695 413.995 337.538 415.108C337.25 414.315 337.278 414.368 337.413 413.528Z" fill="#095BBD"/>
<path d="M209.467 408.12L210.021 408.237L210.154 408.573C209.472 409.495 208.353 410.137 207.383 410.805L207.043 410.72L206.889 410.367C207.595 409.35 208.457 408.852 209.467 408.12Z" fill="#095BBD"/>
</g>
<defs>
<linearGradient id="paint0_linear_10_3" x1="252.28" y1="140.415" x2="234.048" y2="257.41" gradientUnits="userSpaceOnUse">
<stop stop-color="#EF9190"/>
<stop offset="1" stop-color="#CB79EF"/>
</linearGradient>
<linearGradient id="paint1_linear_10_3" x1="256.277" y1="85.4958" x2="249" y2="206" gradientUnits="userSpaceOnUse">
<stop offset="0.0192308" stop-color="#FCBD60"/>
<stop offset="1" stop-color="#E37993"/>
</linearGradient>
<clipPath id="clip0_10_3">
<rect width="500" height="500" fill="white"/>
</clipPath>
</defs>
</svg>
